<svg width="19" height="29" viewBox="0 0 19 29" fill="none" xmlns="http://www.w3.org/2000/svg">
<path d="M12.5 13H11V6H11.5C12.4283 6 13.3185 6.36875 13.9749 7.02513C14.6313 7.6815 15 8.57174 15 9.5C15 9.89782 15.158 10.2794 15.4393 10.5607C15.7206 10.842 16.1022 11 16.5 11C16.8978 11 17.2794 10.842 17.5607 10.5607C17.842 10.2794 18 9.89782 18 9.5C17.998 7.7767 17.3126 6.12455 16.094 4.906C14.8754 3.68744 13.2233 3.00199 11.5 3H11V1.5C11 1.10218 10.842 0.720644 10.5607 0.43934C10.2794 0.158035 9.89782 0 9.5 0C9.10218 0 8.72064 0.158035 8.43934 0.43934C8.15804 0.720644 8 1.10218 8 1.5V3H7.5C5.77609 3 4.12279 3.68482 2.90381 4.90381C1.68482 6.12279 1 7.77609 1 9.5C1 11.2239 1.68482 12.8772 2.90381 14.0962C4.12279 15.3152 5.77609 16 7.5 16H8V23H6.5C5.57174 23 4.6815 22.6313 4.02513 21.9749C3.36875 21.3185 3 20.4283 3 19.5C3 19.1022 2.84196 18.7206 2.56066 18.4393C2.27936 18.158 1.89782 18 1.5 18C1.10218 18 0.720644 18.158 0.43934 18.4393C0.158035 18.7206 0 19.1022 0 19.5C0.00198499 21.2233 0.687442 22.8754 1.906 24.094C3.12455 25.3126 4.7767 25.998 6.5 26H8V27.5C8 27.8978 8.15804 28.2794 8.43934 28.5607C8.72064 28.842 9.10218 29 9.5 29C9.89782 29 10.2794 28.842 10.5607 28.5607C10.842 28.2794 11 27.8978 11 27.5V26H12.5C14.2239 26 15.8772 25.3152 17.0962 24.0962C18.3152 22.8772 19 21.2239 19 19.5C19 17.7761 18.3152 16.1228 17.0962 14.9038C15.8772 13.6848 14.2239 13 12.5 13ZM7.5 13C6.57174 13 5.6815 12.6313 5.02513 11.9749C4.36875 11.3185 4 10.4283 4 9.5C4 8.57174 4.36875 7.6815 5.02513 7.02513C5.6815 6.36875 6.57174 6 7.5 6H8V13H7.5ZM12.5 23H11V16H12.5C13.4283 16 14.3185 16.3687 14.9749 17.0251C15.6313 17.6815 16 18.5717 16 19.5C16 20.4283 15.6313 21.3185 14.9749 21.9749C14.3185 22.6313 13.4283 23 12.5 23Z" fill="#B6B6B6"/>
</svg>
