<svg width="27" height="27" viewBox="0 0 27 27" fill="none" xmlns="http://www.w3.org/2000/svg">
<path d="M26.7075 25.2925L20.4487 19.035C22.2628 16.8571 23.1673 14.0637 22.9743 11.2359C22.7812 8.40811 21.5054 5.76358 19.4122 3.85248C17.319 1.94137 14.5695 0.910828 11.7359 0.975228C8.90219 1.03963 6.20243 2.19401 4.19821 4.19824C2.19398 6.20246 1.0396 8.90222 0.975197 11.7359C0.910797 14.5696 1.94134 17.319 3.85244 19.4122C5.76355 21.5054 8.40808 22.7812 11.2359 22.9743C14.0637 23.1674 16.8571 22.2628 19.035 20.4488L25.2925 26.7075C25.3854 26.8004 25.4957 26.8741 25.6171 26.9244C25.7385 26.9747 25.8686 27.0006 26 27.0006C26.1314 27.0006 26.2615 26.9747 26.3829 26.9244C26.5043 26.8741 26.6146 26.8004 26.7075 26.7075C26.8004 26.6146 26.8741 26.5043 26.9244 26.3829C26.9747 26.2615 27.0005 26.1314 27.0005 26C27.0005 25.8686 26.9747 25.7385 26.9244 25.6171C26.8741 25.4957 26.8004 25.3854 26.7075 25.2925ZM2.99998 12C2.99998 10.22 3.52782 8.47992 4.51675 6.99988C5.50569 5.51984 6.91129 4.36628 8.55583 3.68509C10.2004 3.00391 12.01 2.82568 13.7558 3.17294C15.5016 3.52021 17.1053 4.37738 18.3639 5.63605C19.6226 6.89472 20.4798 8.49837 20.827 10.2442C21.1743 11.99 20.9961 13.7996 20.3149 15.4442C19.6337 17.0887 18.4802 18.4943 17.0001 19.4832C15.5201 20.4722 13.78 21 12 21C9.61384 20.9974 7.3262 20.0483 5.63894 18.361C3.95169 16.6738 3.00263 14.3861 2.99998 12Z" fill="#CE4241"/>
</svg>
