<svg width="30" height="27" viewBox="0 0 30 27" fill="none" xmlns="http://www.w3.org/2000/svg">
<path d="M12.5 24.5C12.5 24.9945 12.3534 25.4778 12.0787 25.8889C11.804 26.3 11.4135 26.6205 10.9567 26.8097C10.4999 26.9989 9.99723 27.0484 9.51227 26.952C9.02732 26.8555 8.58186 26.6174 8.23223 26.2678C7.8826 25.9181 7.6445 25.4727 7.54804 24.9877C7.45157 24.5028 7.50108 24.0001 7.6903 23.5433C7.87952 23.0865 8.19995 22.696 8.61107 22.4213C9.0222 22.1466 9.50555 22 10 22C10.663 22 11.2989 22.2634 11.7678 22.7322C12.2366 23.2011 12.5 23.837 12.5 24.5ZM23 22C22.5055 22 22.0222 22.1466 21.6111 22.4213C21.2 22.696 20.8795 23.0865 20.6903 23.5433C20.5011 24.0001 20.4516 24.5028 20.548 24.9877C20.6445 25.4727 20.8826 25.9181 21.2322 26.2678C21.5819 26.6174 22.0273 26.8555 22.5123 26.952C22.9972 27.0484 23.4999 26.9989 23.9567 26.8097C24.4135 26.6205 24.804 26.3 25.0787 25.8889C25.3534 25.4778 25.5 24.9945 25.5 24.5C25.5 23.837 25.2366 23.2011 24.7678 22.7322C24.2989 22.2634 23.663 22 23 22ZM29.4338 6.94125L26.0225 18.0287C25.8047 18.7458 25.3615 19.3735 24.7587 19.8186C24.1559 20.2638 23.4256 20.5028 22.6763 20.5H10.3663C9.60613 20.4975 8.86728 20.2488 8.26041 19.7911C7.65353 19.3334 7.21131 18.6914 7 17.9613L2.72625 3H1.5C1.10218 3 0.720644 2.84196 0.43934 2.56066C0.158035 2.27936 0 1.89782 0 1.5C0 1.10218 0.158035 0.720644 0.43934 0.43934C0.720644 0.158035 1.10218 0 1.5 0H3.1025C3.64543 0.0016773 4.17318 0.179353 4.60657 0.506372C5.03997 0.833392 5.35565 1.29212 5.50625 1.81375L6.4175 5H28C28.2348 4.99998 28.4662 5.05506 28.6758 5.16081C28.8854 5.26656 29.0672 5.42002 29.2067 5.60885C29.3462 5.79768 29.4394 6.01661 29.4788 6.24803C29.5182 6.47944 29.5028 6.71689 29.4338 6.94125ZM25.9688 8H7.27375L9.885 17.1375C9.9149 17.242 9.97805 17.334 10.0649 17.3994C10.1517 17.4648 10.2575 17.5001 10.3663 17.5H22.6763C22.7833 17.5002 22.8875 17.4661 22.9737 17.4026C23.0599 17.3392 23.1234 17.2498 23.155 17.1475L25.9688 8Z" fill="#B6B6B6"/>
</svg>
