<svg width="28" height="26" viewBox="0 0 28 26" fill="none" xmlns="http://www.w3.org/2000/svg">
<path d="M26.9737 20.4163C27.679 18.9827 28.0305 17.4009 27.9988 15.8035C27.967 14.2062 27.553 12.6396 26.7914 11.2351C26.0298 9.83064 24.9428 8.62908 23.6213 7.73108C22.2999 6.83308 20.7825 6.26478 19.1962 6.07378C18.6702 4.84743 17.904 3.73878 16.9428 2.81314C15.9816 1.8875 14.8449 1.1636 13.5996 0.684076C12.3543 0.204556 11.0257 -0.0208798 9.6919 0.0210519C8.35814 0.0629836 7.04626 0.371434 5.83356 0.92823C4.62085 1.48503 3.53185 2.27891 2.63072 3.26309C1.72958 4.24728 1.03454 5.40187 0.586536 6.65884C0.138536 7.91581 -0.0533601 9.24973 0.0221543 10.582C0.0976687 11.9143 0.439066 13.218 1.02623 14.4163L0.0687322 17.7688C-0.0167099 18.0687 -0.0204529 18.386 0.0578904 18.6879C0.136234 18.9897 0.293817 19.2652 0.514333 19.4857C0.73485 19.7062 1.01029 19.8638 1.31214 19.9421C1.614 20.0205 1.93131 20.0167 2.23123 19.9313L5.58373 18.9738C6.59537 19.4705 7.68356 19.7929 8.80248 19.9275C9.33585 21.1771 10.1183 22.305 11.102 23.2422C12.0857 24.1793 13.2501 24.9062 14.5241 25.3785C15.7981 25.8507 17.1549 26.0584 18.5118 25.9888C19.8687 25.9192 21.1972 25.5738 22.4162 24.9738L25.7687 25.9313C26.0687 26.0167 26.386 26.0205 26.6878 25.9421C26.9897 25.8638 27.2651 25.7062 27.4856 25.4857C27.7061 25.2652 27.8637 24.9897 27.9421 24.6879C28.0204 24.386 28.0167 24.0687 27.9312 23.7688L26.9737 20.4163ZM5.69123 16.9038C5.59829 16.9038 5.50578 16.9164 5.41623 16.9413L2.11498 17.885L3.05873 14.5838C3.12946 14.3323 3.09895 14.0631 2.97373 13.8338C2.05425 12.1457 1.77386 10.1828 2.18393 8.3048C2.594 6.42679 3.66708 4.75944 5.20653 3.60827C6.74597 2.45711 8.64869 1.89923 10.566 2.03686C12.4833 2.17449 14.2869 2.99842 15.6461 4.35766C17.0053 5.7169 17.8293 7.52042 17.9669 9.43775C18.1045 11.3551 17.5467 13.2578 16.3955 14.7972C15.2443 16.3367 13.577 17.4098 11.699 17.8198C9.82095 18.2299 7.85807 17.9495 6.16998 17.03C6.02363 16.9482 5.85892 16.9047 5.69123 16.9038ZM24.9412 20.5838L25.885 23.885L22.5837 22.9413C22.3322 22.8706 22.063 22.9011 21.8337 23.0263C19.9904 24.0292 17.8269 24.2683 15.809 23.6923C13.7911 23.1163 12.0799 21.7711 11.0437 19.9463C12.413 19.8037 13.7381 19.3796 14.9358 18.7007C16.1335 18.0218 17.1779 17.1027 18.0036 16.0011C18.8293 14.8994 19.4184 13.6391 19.734 12.299C20.0496 10.9589 20.0848 9.5681 19.8375 8.21378C21.0358 8.49618 22.1527 9.05132 23.1013 9.83598C24.05 10.6206 24.8047 11.6137 25.3068 12.7377C25.8089 13.8618 26.0448 15.0866 25.9961 16.3167C25.9475 17.5468 25.6156 18.7491 25.0262 19.83C24.9 20.0604 24.8695 20.3311 24.9412 20.5838Z" fill="#B6B6B6"/>
</svg>
