<svg width="160" height="160" viewBox="0 0 160 160" fill="none" xmlns="http://www.w3.org/2000/svg">
<g filter="url(#filter0_d_286_20)">
<path d="M144.325 132.5C134.806 116.044 120.137 104.244 103.019 98.65C111.486 93.6091 118.065 85.928 121.745 76.7862C125.425 67.6445 126.002 57.5475 123.388 48.046C120.774 38.5445 115.113 30.1637 107.275 24.1908C99.4367 18.2179 89.8546 14.983 80 14.983C70.1454 14.983 60.5633 18.2179 52.7252 24.1908C44.887 30.1637 39.2262 38.5445 36.6121 48.046C33.998 57.5475 34.5752 67.6445 38.2549 76.7862C41.9347 85.928 48.5135 93.6091 56.9812 98.65C39.8625 104.238 25.1937 116.038 15.675 132.5C15.3259 133.069 15.0944 133.703 14.9941 134.363C14.8937 135.023 14.9266 135.696 15.0908 136.343C15.2549 136.991 15.5471 137.598 15.9499 138.131C16.3528 138.663 16.8582 139.11 17.4364 139.444C18.0146 139.778 18.6538 139.992 19.3163 140.075C19.9788 140.158 20.6512 140.108 21.2939 139.926C21.9365 139.745 22.5364 139.437 23.058 139.021C23.5797 138.604 24.0126 138.087 24.3312 137.5C36.1062 117.15 56.9187 105 80 105C103.081 105 123.894 117.15 135.669 137.5C135.987 138.087 136.42 138.604 136.942 139.021C137.464 139.437 138.063 139.745 138.706 139.926C139.349 140.108 140.021 140.158 140.684 140.075C141.346 139.992 141.985 139.778 142.564 139.444C143.142 139.11 143.647 138.663 144.05 138.131C144.453 137.598 144.745 136.991 144.909 136.343C145.073 135.696 145.106 135.023 145.006 134.363C144.906 133.703 144.674 133.069 144.325 132.5ZM45 60C45 53.0777 47.0527 46.3108 50.8986 40.555C54.7444 34.7993 60.2107 30.3133 66.6061 27.6642C73.0015 25.0152 80.0388 24.322 86.8282 25.6725C93.6175 27.023 99.8539 30.3564 104.749 35.2513C109.644 40.1461 112.977 46.3825 114.327 53.1718C115.678 59.9612 114.985 66.9985 112.336 73.3939C109.687 79.7893 105.201 85.2556 99.445 89.1014C93.6892 92.9473 86.9223 95 80 95C70.7205 94.9901 61.8238 91.2994 55.2622 84.7378C48.7006 78.1762 45.0099 69.2795 45 60Z" fill="#FFFDFD"/>
</g>
<defs>
<filter id="filter0_d_286_20" x="4.93727" y="10.983" width="150.125" height="145.131" filterUnits="userSpaceOnUse" color-interpolation-filters="sRGB">
<feFlood flood-opacity="0" result="BackgroundImageFix"/>
<feColorMatrix in="SourceAlpha" type="matrix" values="0 0 0 0 0 0 0 0 0 0 0 0 0 0 0 0 0 0 127 0" result="hardAlpha"/>
<feOffset dy="6"/>
<feGaussianBlur stdDeviation="5"/>
<feComposite in2="hardAlpha" operator="out"/>
<feColorMatrix type="matrix" values="0 0 0 0 0.7 0 0 0 0 0.7 0 0 0 0 0.7 0 0 0 0.25 0"/>
<feBlend mode="normal" in2="BackgroundImageFix" result="effect1_dropShadow_286_20"/>
<feBlend mode="normal" in="SourceGraphic" in2="effect1_dropShadow_286_20" result="shape"/>
</filter>
</defs>
</svg>
