<svg width="70" height="26" viewBox="0 0 70 26" fill="none" xmlns="http://www.w3.org/2000/svg">
<path d="M13.0308 0C10.4536 0 7.93419 0.762437 5.79128 2.1909C3.64838 3.61935 1.97819 5.64968 0.991917 8.02512C0.00564605 10.4006 -0.252407 13.0144 0.250389 15.5362C0.753186 18.0579 1.99425 20.3743 3.81664 22.1924C5.63903 24.0105 7.9609 25.2486 10.4886 25.7502C13.0164 26.2518 15.6364 25.9944 18.0175 25.0104C20.3986 24.0265 22.4337 22.3603 23.8655 20.2224C25.2974 18.0846 26.0616 15.5712 26.0616 13C26.058 9.5533 24.6839 6.24882 22.2409 3.81163C19.798 1.37445 16.4857 0.00363977 13.0308 0ZM6.27484 21.6875C6.99997 20.5561 7.99892 19.625 9.17961 18.9801C10.3603 18.3351 11.6847 17.9971 13.0308 17.9971C14.3769 17.9971 15.7013 18.3351 16.882 18.9801C18.0627 19.625 19.0616 20.5561 19.7868 21.6875C17.8551 23.1862 15.4779 23.9999 13.0308 23.9999C10.5837 23.9999 8.20649 23.1862 6.27484 21.6875ZM9.02133 12C9.02133 11.2089 9.25648 10.4355 9.69705 9.77772C10.1376 9.11992 10.7638 8.60723 11.4964 8.30448C12.2291 8.00173 13.0353 7.92252 13.813 8.07686C14.5908 8.2312 15.3052 8.61216 15.8659 9.17157C16.4267 9.73098 16.8085 10.4437 16.9632 11.2196C17.118 11.9956 17.0386 12.7998 16.7351 13.5307C16.4316 14.2616 15.9177 14.8864 15.2584 15.3259C14.599 15.7654 13.8238 16 13.0308 16C11.9674 16 10.9476 15.5786 10.1957 14.8284C9.44376 14.0783 9.02133 13.0609 9.02133 12ZM21.2703 20.3013C20.1524 18.6851 18.5804 17.4348 16.7521 16.7075C17.7342 15.9358 18.4508 14.878 18.8024 13.6811C19.1539 12.4843 19.1228 11.2079 18.7135 10.0294C18.3042 8.851 17.5369 7.82911 16.5185 7.10586C15.5 6.38262 14.2809 5.99397 13.0308 5.99397C11.7807 5.99397 10.5616 6.38262 9.54314 7.10586C8.52468 7.82911 7.75743 8.851 7.34811 10.0294C6.93879 11.2079 6.90773 12.4843 7.25926 13.6811C7.61078 14.878 8.32742 15.9358 9.30951 16.7075C7.48121 17.4348 5.90926 18.6851 4.79133 20.3013C3.3787 18.7165 2.4554 16.7581 2.1326 14.6619C1.80981 12.5657 2.10128 10.4211 2.97193 8.48637C3.84257 6.55163 5.25527 4.90922 7.0399 3.75692C8.82454 2.60462 10.905 1.99156 13.0308 1.99156C15.1566 1.99156 17.2371 2.60462 19.0217 3.75692C20.8064 4.90922 22.219 6.55163 23.0897 8.48637C23.9603 10.4211 24.2518 12.5657 23.929 14.6619C23.6062 16.7581 22.6829 18.7165 21.2703 20.3013Z" fill="#91959B"/>
<path d="M34.1261 15.3239V11.4545H35.1342V18H34.1261V16.892H34.0578C33.904 17.2244 33.6648 17.5071 33.3402 17.7401C33.0155 17.9702 32.6055 18.0852 32.11 18.0852C31.6999 18.0852 31.3354 17.9957 31.0165 17.8168C30.6976 17.6349 30.447 17.3622 30.2647 16.9986C30.0825 16.6321 29.9914 16.1705 29.9914 15.6136V11.4545H30.9994V15.5455C30.9994 16.0227 31.1333 16.4034 31.4009 16.6875C31.6715 16.9716 32.016 17.1136 32.4346 17.1136C32.6852 17.1136 32.9401 17.0497 33.1992 16.9219C33.4612 16.794 33.6805 16.598 33.857 16.3338C34.0364 16.0696 34.1261 15.733 34.1261 15.3239Z" fill="white"/>
<path d="M41.6279 12.9205L40.7223 13.1761C40.6654 13.0256 40.5814 12.8793 40.4703 12.7372C40.3621 12.5923 40.214 12.473 40.0261 12.3793C39.8381 12.2855 39.5975 12.2386 39.3042 12.2386C38.9027 12.2386 38.5681 12.331 38.3004 12.5156C38.0356 12.6974 37.9032 12.929 37.9032 13.2102C37.9032 13.4602 37.9943 13.6577 38.1765 13.8026C38.3588 13.9474 38.6436 14.0682 39.0308 14.1648L40.0047 14.4034C40.5913 14.5455 41.0285 14.7628 41.3161 15.0554C41.6037 15.3452 41.7475 15.7188 41.7475 16.1761C41.7475 16.5511 41.6393 16.8864 41.4229 17.1818C41.2093 17.4773 40.9103 17.7102 40.5258 17.8807C40.1414 18.0511 39.6943 18.1364 39.1846 18.1364C38.5154 18.1364 37.9615 17.9915 37.523 17.7017C37.0845 17.4119 36.8068 16.9886 36.6901 16.4318L37.6469 16.1932C37.738 16.5455 37.9103 16.8097 38.1637 16.9858C38.42 17.1619 38.7546 17.25 39.1675 17.25C39.6374 17.25 40.0104 17.1506 40.2866 16.9517C40.5657 16.75 40.7052 16.5085 40.7052 16.2273C40.7052 16 40.6255 15.8097 40.466 15.6562C40.3066 15.5 40.0617 15.3835 39.7314 15.3068L38.6379 15.0511C38.037 14.9091 37.5956 14.6889 37.3137 14.3906C37.0346 14.0895 36.8951 13.7131 36.8951 13.2614C36.8951 12.892 36.999 12.5653 37.2069 12.2812C37.4176 11.9972 37.7038 11.7741 38.0655 11.6122C38.43 11.4503 38.8429 11.3693 39.3042 11.3693C39.9535 11.3693 40.4632 11.5114 40.8334 11.7955C41.2064 12.0795 41.4713 12.4545 41.6279 12.9205Z" fill="white"/>
<path d="M47.3997 15.3239V11.4545H48.4078V18H47.3997V16.892H47.3314C47.1776 17.2244 46.9384 17.5071 46.6137 17.7401C46.2891 17.9702 45.8791 18.0852 45.3836 18.0852C44.9735 18.0852 44.609 17.9957 44.2901 17.8168C43.9711 17.6349 43.7205 17.3622 43.5383 16.9986C43.356 16.6321 43.2649 16.1705 43.2649 15.6136V11.4545H44.273V15.5455C44.273 16.0227 44.4068 16.4034 44.6745 16.6875C44.945 16.9716 45.2896 17.1136 45.7082 17.1136C45.9588 17.1136 46.2137 17.0497 46.4728 16.9219C46.7348 16.794 46.954 16.598 47.1306 16.3338C47.31 16.0696 47.3997 15.733 47.3997 15.3239Z" fill="white"/>
<path d="M52.1848 18.1534C51.769 18.1534 51.3917 18.0753 51.0529 17.919C50.714 17.7599 50.4449 17.5312 50.2456 17.233C50.0462 16.9318 49.9466 16.5682 49.9466 16.142C49.9466 15.767 50.0206 15.4631 50.1687 15.2301C50.3167 14.9943 50.5147 14.8097 50.7624 14.6761C51.0102 14.5426 51.2835 14.4432 51.5825 14.3778C51.8844 14.3097 52.1876 14.2557 52.4923 14.2159C52.891 14.1648 53.2142 14.1264 53.462 14.1009C53.7126 14.0724 53.8948 14.0256 54.0087 13.9602C54.1255 13.8949 54.1838 13.7812 54.1838 13.6193V13.5852C54.1838 13.1648 54.0685 12.8381 53.8379 12.6051C53.61 12.3722 53.2641 12.2557 52.7999 12.2557C52.3186 12.2557 51.9413 12.3608 51.668 12.571C51.3946 12.7812 51.2024 13.0057 51.0913 13.2443L50.1345 12.9034C50.3054 12.5057 50.5332 12.196 50.8179 11.9744C51.1055 11.75 51.4188 11.5938 51.7577 11.5057C52.0994 11.4148 52.4354 11.3693 52.7657 11.3693C52.9764 11.3693 53.2185 11.3949 53.4919 11.446C53.7681 11.4943 54.0343 11.5952 54.2906 11.7486C54.5498 11.902 54.7648 12.1335 54.9356 12.4432C55.1065 12.7528 55.1919 13.1676 55.1919 13.6875V18H54.1838V17.1136H54.1326C54.0642 17.2557 53.9503 17.4077 53.7909 17.5696C53.6314 17.7315 53.4193 17.8693 53.1544 17.983C52.8896 18.0966 52.5664 18.1534 52.1848 18.1534ZM52.3386 17.25C52.7372 17.25 53.0733 17.1719 53.3466 17.0156C53.6229 16.8594 53.8307 16.6577 53.9703 16.4105C54.1127 16.1634 54.1838 15.9034 54.1838 15.6307V14.7102C54.1411 14.7614 54.0472 14.8082 53.9019 14.8509C53.7595 14.8906 53.5944 14.9261 53.4064 14.9574C53.2213 14.9858 53.0405 15.0114 52.864 15.0341C52.6903 15.054 52.5493 15.071 52.4411 15.0852C52.1791 15.1193 51.9342 15.1747 51.7064 15.2514C51.4814 15.3253 51.2992 15.4375 51.1596 15.5881C51.023 15.7358 50.9546 15.9375 50.9546 16.1932C50.9546 16.5426 51.0842 16.8068 51.3433 16.9858C51.6053 17.1619 51.9371 17.25 52.3386 17.25Z" fill="white"/>
<path d="M57.0318 18V11.4545H58.0057V12.4432H58.0741C58.1937 12.1193 58.4101 11.8565 58.7233 11.6548C59.0366 11.4531 59.3897 11.3523 59.7827 11.3523C59.8567 11.3523 59.9492 11.3537 60.0603 11.3565C60.1714 11.3594 60.2554 11.3636 60.3123 11.3693V12.392C60.2782 12.3835 60.1998 12.3707 60.0774 12.3537C59.9578 12.3338 59.8311 12.3239 59.6972 12.3239C59.3783 12.3239 59.0935 12.3906 58.8429 12.5241C58.5952 12.6548 58.3987 12.8366 58.2535 13.0696C58.1111 13.2997 58.0399 13.5625 58.0399 13.858V18H57.0318Z" fill="white"/>
<path d="M61.5073 18V11.4545H62.5153V18H61.5073ZM62.0198 10.3636C61.8234 10.3636 61.6539 10.2969 61.5115 10.1634C61.372 10.0298 61.3022 9.86932 61.3022 9.68182C61.3022 9.49432 61.372 9.33381 61.5115 9.20028C61.6539 9.06676 61.8234 9 62.0198 9C62.2163 9 62.3843 9.06676 62.5239 9.20028C62.6663 9.33381 62.7374 9.49432 62.7374 9.68182C62.7374 9.86932 62.6663 10.0298 62.5239 10.1634C62.3843 10.2969 62.2163 10.3636 62.0198 10.3636Z" fill="white"/>
<path d="M67.0271 18.1364C66.4348 18.1364 65.9151 17.9957 65.468 17.7145C65.0237 17.4332 64.6763 17.0398 64.4257 16.5341C64.178 16.0284 64.0541 15.4375 64.0541 14.7614C64.0541 14.0795 64.178 13.4844 64.4257 12.9759C64.6763 12.4673 65.0237 12.0724 65.468 11.7912C65.9151 11.5099 66.4348 11.3693 67.0271 11.3693C67.6194 11.3693 68.1376 11.5099 68.5819 11.7912C69.029 12.0724 69.3764 12.4673 69.6241 12.9759C69.8747 13.4844 70 14.0795 70 14.7614C70 15.4375 69.8747 16.0284 69.6241 16.5341C69.3764 17.0398 69.029 17.4332 68.5819 17.7145C68.1376 17.9957 67.6194 18.1364 67.0271 18.1364ZM67.0271 17.233C67.477 17.233 67.8472 17.1179 68.1376 16.8878C68.4281 16.6577 68.6431 16.3551 68.7826 15.9801C68.9222 15.6051 68.9919 15.1989 68.9919 14.7614C68.9919 14.3239 68.9222 13.9162 68.7826 13.5384C68.6431 13.1605 68.4281 12.8551 68.1376 12.6222C67.8472 12.3892 67.477 12.2727 67.0271 12.2727C66.5771 12.2727 66.2069 12.3892 65.9165 12.6222C65.626 12.8551 65.411 13.1605 65.2715 13.5384C65.132 13.9162 65.0622 14.3239 65.0622 14.7614C65.0622 15.1989 65.132 15.6051 65.2715 15.9801C65.411 16.3551 65.626 16.6577 65.9165 16.8878C66.2069 17.1179 66.5771 17.233 67.0271 17.233Z" fill="white"/>
</svg>
